<svg width="214" height="21" viewBox="0 0 214 21" fill="none" xmlns="http://www.w3.org/2000/svg">
<path d="M156.322 1.24817V19.7273H164.42C166.473 19.7273 168.051 19.5971 169.056 19.3003C172.9 18.2638 175.056 14.2898 175.056 10.6648C175.056 8.05025 174.155 5.81588 172.337 3.97213C170.53 2.13359 167.936 1.24817 164.499 1.24817H156.322ZM162.874 5.67525H163.728C165.915 5.67525 167.087 6.269 167.884 7.75859C168.29 8.50859 168.499 9.44088 168.499 10.5607C168.499 12.9617 167.462 14.3471 166.342 14.8471C165.785 15.0867 165.009 15.2534 164.129 15.2534H162.874V5.67525ZM177.295 1.24817V19.7273H190.863V15.5711H183.853V12.4513H190.337V8.29504H183.853V5.40963H190.733V1.24817H177.295ZM191.795 1.24817L199.415 19.7273H204.728L212.16 1.24817H206.191L202.644 10.7482L198.884 1.24817H191.795Z" stroke="black" stroke-width="1.5"/>
<path d="M0 1.25L7 11.4792V19.7292H13.5625V11.4792L20.375 1.25H13.8958L10.9583 5.89583L7.85417 1.25H0Z" fill="black"/>
<path d="M28.6484 1.25L20.8359 19.7292H27.5651L28.6484 16.875H35.5026L36.5443 19.7292H43.2943L35.5026 1.25H28.6484ZM32.0859 7.33333L34.1276 13.0417H30.0234L32.0859 7.33333Z" fill="black"/>
<path d="M45.0403 1.25V19.7292H51.6028V11L59.6653 19.7292H65.3736V1.25H58.8111V10.0208L50.707 1.25H45.0403Z" fill="black"/>
<path d="M77.9235 1C69.861 1 67.6318 7.08333 67.6318 10.5833C67.6318 15.75 71.486 19.9375 77.7777 19.9375C80.0693 19.9375 81.5902 19.625 84.0693 18.4167V13.375C82.4235 14.4583 80.8402 14.9583 79.1943 14.9583C76.2985 14.9583 74.1735 13.0625 74.1735 10.4167C74.1735 7.75 76.111 5.9375 78.8818 5.9375C80.611 5.9375 82.2568 6.52083 83.9235 7.75V2.22917C81.8818 1.35417 80.1527 1 77.9235 1Z" fill="black"/>
<path d="M86.2507 1.25V19.7292H92.8132V12.7708H99.4799V19.7292H106.042V1.25H99.4799V7.89583H92.8132V1.25H86.2507Z" fill="black"/>
<path d="M108.934 1.25V10.7708C108.934 17.1458 113.017 19.9375 118.788 19.9375C125.08 19.9375 128.726 16.8958 128.726 10.7083V1.25H122.163V9.72917C122.163 12.75 121.705 14.9792 118.83 14.9792C115.58 14.9792 115.497 12.1875 115.497 9.97917V1.25H108.934Z" fill="black"/>
<path d="M131.619 1.25V19.7292H138.182V11.125L144.015 19.7292H151.807L144.765 10.0208L151.682 1.25H144.765L138.182 9.66667V1.25H131.619Z" fill="black"/>
</svg>
