<svg width="30" height="28" viewBox="0 0 30 28" fill="none" xmlns="http://www.w3.org/2000/svg">
<mask id="mask0_36_166" style="mask-type:luminance" maskUnits="userSpaceOnUse" x="0" y="8" width="15" height="11">
<path d="M0 8H14.6667V18.6667H0V8Z" fill="white"/>
</mask>
<g mask="url(#mask0_36_166)">
<mask id="mask1_36_166" style="mask-type:luminance" maskUnits="userSpaceOnUse" x="0" y="7" width="15" height="14">
<path d="M7.43748 20.5833L0.958313 13.7708L7.77081 7.29167L14.25 14.1042L7.43748 20.5833Z" fill="white"/>
</mask>
<g mask="url(#mask1_36_166)">
<mask id="mask2_36_166" style="mask-type:luminance" maskUnits="userSpaceOnUse" x="0" y="7" width="15" height="14">
<path d="M7.43748 20.5833L0.958313 13.7708L7.77081 7.29167L14.25 14.1042L7.43748 20.5833Z" fill="white"/>
</mask>
<g mask="url(#mask2_36_166)">
<path d="M4.21352 17.1927C4.65102 17.651 5.16144 18.0104 5.73435 18.2604C6.29165 18.5 6.88019 18.6302 7.48435 18.6458C8.09373 18.6615 8.68748 18.5625 9.25519 18.349C9.83852 18.125 10.3698 17.7969 10.8281 17.3594L14.2135 14.1354L10.9896 10.75C10.5573 10.2917 10.0469 9.93229 9.46873 9.68229C8.91665 9.4427 8.32811 9.3125 7.71873 9.29687C7.11456 9.28125 6.52081 9.3802 5.9531 9.59375C5.36456 9.8125 4.83852 10.1458 4.38019 10.5833L0.989563 13.8073L4.21352 17.1927Z" fill="white"/>
</g>
</g>
</g>
<mask id="mask3_36_166" style="mask-type:luminance" maskUnits="userSpaceOnUse" x="14" y="9" width="16" height="11">
<path d="M14.6667 9.33333H29.3333V20H14.6667V9.33333Z" fill="white"/>
</mask>
<g mask="url(#mask3_36_166)">
<mask id="mask4_36_166" style="mask-type:luminance" maskUnits="userSpaceOnUse" x="15" y="7" width="14" height="14">
<path d="M21.8385 20.8542L15.3594 14.0417L22.1667 7.5625L28.6458 14.375L21.8385 20.8542Z" fill="white"/>
</mask>
<g mask="url(#mask4_36_166)">
<mask id="mask5_36_166" style="mask-type:luminance" maskUnits="userSpaceOnUse" x="15" y="7" width="14" height="14">
<path d="M21.8385 20.8542L15.3594 14.0417L22.1667 7.5625L28.6458 14.375L21.8385 20.8542Z" fill="white"/>
</mask>
<g mask="url(#mask5_36_166)">
<path d="M18.6094 17.4635C19.0469 17.9167 19.5573 18.276 20.1302 18.526C20.6875 18.7708 21.276 18.901 21.8854 18.9167C22.4948 18.9323 23.0885 18.8281 23.6562 18.6146C24.2396 18.3958 24.7708 18.0625 25.2292 17.625L28.6198 14.401L25.3958 11.0104C24.9583 10.5521 24.4479 10.1927 23.8698 9.94269C23.3177 9.70311 22.7292 9.5729 22.1198 9.55728C21.5104 9.54165 20.9167 9.64061 20.3489 9.85415C19.7656 10.0729 19.2344 10.4062 18.776 10.8437L15.3854 14.0677L18.6094 17.4635Z" fill="white"/>
</g>
</g>
</g>
<mask id="mask6_36_166" style="mask-type:luminance" maskUnits="userSpaceOnUse" x="9" y="14" width="11" height="14">
<path d="M9.33331 14.6667H20V28H9.33331V14.6667Z" fill="white"/>
</mask>
<g mask="url(#mask6_36_166)">
<mask id="mask7_36_166" style="mask-type:luminance" maskUnits="userSpaceOnUse" x="7" y="14" width="15" height="14">
<path d="M7.95831 21.1302L14.7708 14.651L21.25 21.4635L14.4375 27.9427L7.95831 21.1302Z" fill="white"/>
</mask>
<g mask="url(#mask7_36_166)">
<mask id="mask8_36_166" style="mask-type:luminance" maskUnits="userSpaceOnUse" x="7" y="14" width="15" height="14">
<path d="M7.95831 21.1302L14.7708 14.651L21.25 21.4635L14.4375 27.9427L7.95831 21.1302Z" fill="white"/>
</mask>
<g mask="url(#mask8_36_166)">
<path d="M11.3542 17.9062C10.8958 18.3385 10.5364 18.8542 10.2864 19.4271C10.0417 19.9844 9.91145 20.5729 9.89582 21.1823C9.88541 21.7865 9.98436 22.3854 10.1979 22.9479C10.4167 23.5365 10.75 24.0677 11.1875 24.5208L14.4114 27.9167L17.8021 24.6875C18.2604 24.2552 18.6198 23.7396 18.8698 23.1667C19.1146 22.6094 19.2448 22.0208 19.2552 21.4167C19.2708 20.8073 19.1719 20.2135 18.9583 19.6458C18.7396 19.0573 18.4062 18.5312 17.9687 18.0729L14.7448 14.6771L11.3542 17.9062Z" fill="white"/>
</g>
</g>
</g>
<mask id="mask9_36_166" style="mask-type:luminance" maskUnits="userSpaceOnUse" x="9" y="0" width="11" height="15">
<path d="M9.33331 0H20V14.6667H9.33331V0Z" fill="white"/>
</mask>
<g mask="url(#mask9_36_166)">
<mask id="mask10_36_166" style="mask-type:luminance" maskUnits="userSpaceOnUse" x="8" y="0" width="14" height="14">
<path d="M8.41666 6.74479L15.2292 0.265625L21.7031 7.07813L14.8958 13.5573L8.41666 6.74479Z" fill="white"/>
</mask>
<g mask="url(#mask10_36_166)">
<mask id="mask11_36_166" style="mask-type:luminance" maskUnits="userSpaceOnUse" x="8" y="0" width="14" height="14">
<path d="M8.41666 6.74479L15.2292 0.265625L21.7031 7.07813L14.8958 13.5573L8.41666 6.74479Z" fill="white"/>
</mask>
<g mask="url(#mask11_36_166)">
<path d="M11.8073 3.52084C11.349 3.95313 10.9896 4.46355 10.7396 5.04167C10.5 5.59375 10.3698 6.18751 10.3542 6.79167C10.3385 7.40105 10.4427 7.9948 10.651 8.56251C10.875 9.15105 11.2083 9.67709 11.6406 10.1354L14.8698 13.526L18.2604 10.3021C18.7187 9.86459 19.0781 9.35417 19.3281 8.78126C19.5677 8.22396 19.6979 7.63542 19.7135 7.02605C19.7292 6.42188 19.6302 5.82292 19.4167 5.25521C19.1927 4.67188 18.8594 4.14063 18.4271 3.6823L15.1979 0.291672L11.8073 3.52084Z" fill="white"/>
</g>
</g>
</g>
</svg>
